<svg width="48" height="48" viewBox="0 0 48 48" fill="none" xmlns="http://www.w3.org/2000/svg">
<rect width="48" height="48" rx="12" fill="url(#paint0_linear_35_18)"/>
<path d="M10.206 33V15.5455H16.7514C18.0923 15.5455 19.2173 15.7955 20.1264 16.2955C21.0412 16.7955 21.7315 17.483 22.1974 18.358C22.669 19.2273 22.9048 20.2159 22.9048 21.3239C22.9048 22.4432 22.669 23.4375 22.1974 24.3068C21.7259 25.1761 21.0298 25.8608 20.1094 26.3608C19.1889 26.8551 18.0554 27.1023 16.7088 27.1023H12.3707V24.5028H16.2827C17.0668 24.5028 17.7088 24.3665 18.2088 24.0938C18.7088 23.821 19.0781 23.446 19.3168 22.9688C19.5611 22.4915 19.6832 21.9432 19.6832 21.3239C19.6832 20.7045 19.5611 20.1591 19.3168 19.6875C19.0781 19.2159 18.706 18.8494 18.2003 18.5881C17.7003 18.321 17.0554 18.1875 16.2656 18.1875H13.3679V33H10.206ZM35.1371 20.3438C35.0575 19.5994 34.7223 19.0199 34.1314 18.6051C33.5462 18.1903 32.7848 17.983 31.8473 17.983C31.1882 17.983 30.6229 18.0824 30.1513 18.2812C29.6797 18.4801 29.3189 18.75 29.0689 19.0909C28.8189 19.4318 28.6911 19.821 28.6854 20.2585C28.6854 20.6222 28.7678 20.9375 28.9325 21.2045C29.103 21.4716 29.3331 21.6989 29.6229 21.8864C29.9126 22.0682 30.2337 22.2216 30.5859 22.3466C30.9382 22.4716 31.2933 22.5767 31.6513 22.6619L33.2876 23.071C33.9467 23.2244 34.5803 23.4318 35.1882 23.6932C35.8018 23.9545 36.3501 24.2841 36.8331 24.6818C37.3217 25.0795 37.7081 25.5597 37.9922 26.1222C38.2763 26.6847 38.4183 27.3437 38.4183 28.0994C38.4183 29.1222 38.157 30.0227 37.6342 30.8011C37.1115 31.5739 36.3558 32.179 35.3672 32.6165C34.3842 33.0483 33.1939 33.2642 31.7962 33.2642C30.4382 33.2642 29.2592 33.054 28.2592 32.6335C27.2649 32.2131 26.4865 31.5994 25.924 30.7926C25.3672 29.9858 25.0661 29.0028 25.0206 27.8438H28.1314C28.1768 28.4517 28.3643 28.9574 28.6939 29.3608C29.0234 29.7642 29.4524 30.0653 29.9808 30.2642C30.5149 30.4631 31.1115 30.5625 31.7706 30.5625C32.4581 30.5625 33.0604 30.4602 33.5774 30.2557C34.1001 30.0455 34.5092 29.7557 34.8047 29.3864C35.1001 29.0114 35.2507 28.5739 35.2564 28.0739C35.2507 27.6193 35.1172 27.2443 34.8558 26.9489C34.5945 26.6477 34.228 26.3977 33.7564 26.1989C33.2905 25.9943 32.745 25.8125 32.12 25.6534L30.1342 25.142C28.6967 24.7727 27.5604 24.2131 26.7251 23.4631C25.8956 22.7074 25.4808 21.7045 25.4808 20.4545C25.4808 19.4261 25.7592 18.5256 26.3161 17.7528C26.8786 16.9801 27.6428 16.3807 28.6087 15.9545C29.5746 15.5227 30.6683 15.3068 31.8899 15.3068C33.1286 15.3068 34.2138 15.5227 35.1456 15.9545C36.0831 16.3807 36.8189 16.9744 37.353 17.7358C37.8871 18.4915 38.1626 19.3608 38.1797 20.3438H35.1371Z" fill="black"/>
<defs>
<linearGradient id="paint0_linear_35_18" x1="8.5" y1="-4.20958e-07" x2="35.5" y2="48" gradientUnits="userSpaceOnUse">
<stop stop-color="#1E35FF"/>
<stop offset="1" stop-color="#BF6DFF"/>
</linearGradient>
</defs>
</svg>
